<svg version="1.1" id="Layer_1" xmlns="http://www.w3.org/2000/svg" xmlns:xlink="http://www.w3.org/1999/xlink" x="0px" y="0px"
	 width="100%" viewBox="0 0 1024 1024" enable-background="new 0 0 1024 1024" xml:space="preserve">
<path fill="#000000" opacity="1.000000" stroke="none" 
	d="
M626.011353,163.960571 
	C629.841064,166.362167 633.343811,168.605042 636.899963,170.759857 
	C639.281799,172.203064 641.525818,173.531342 644.692627,173.425278 
	C647.432495,173.333527 650.575012,174.944092 651.768921,177.534302 
	C654.958435,184.453384 661.472351,187.130112 667.630737,189.225754 
	C671.147644,190.422485 671.858276,193.272949 674.302002,194.838821 
	C686.783447,202.836731 699.176819,210.972519 711.586426,219.082367 
	C723.160156,226.645996 734.653503,234.335434 746.321655,241.750107 
	C749.354248,243.677200 749.199219,246.230713 749.196655,249.081848 
	C749.151489,299.411407 749.181763,349.741150 749.011597,400.070221 
	C748.996826,404.426697 750.334595,407.045593 754.047668,409.354980 
	C773.560913,421.491760 792.899475,433.909119 812.352722,446.143066 
	C815.514099,448.131256 817.364502,450.206268 817.356567,454.427460 
	C817.171997,552.753845 817.059937,651.080688 817.282593,749.406738 
	C817.300110,757.143921 814.842712,761.194824 808.054626,764.825256 
	C761.057861,789.960754 713.841614,814.676331 666.684875,839.507385 
	C626.746460,860.537537 586.929626,881.799255 547.140015,903.109985 
	C543.761780,904.919312 541.239014,905.047424 538.013245,902.961670 
	C531.161438,898.531372 523.974670,894.619202 517.123169,890.188477 
	C513.478760,887.831726 510.512573,888.078918 507.155334,890.622559 
	C502.046539,894.493286 495.677429,896.453308 490.265808,901.166626 
	C499.556488,906.961914 508.366333,912.457214 516.946411,917.809204 
	C516.698792,920.721558 514.713501,921.216370 513.187927,922.065857 
	C506.058136,926.036133 498.685333,929.616028 491.813690,933.986816 
	C487.561676,936.691406 484.198975,936.074463 480.338562,933.730591 
	C468.094696,926.297058 455.792633,918.959167 443.492950,911.617981 
	C388.142792,878.582031 332.862061,845.428772 277.394836,812.590515 
	C254.035583,798.761292 230.684784,784.925171 207.634094,770.589844 
	C204.687759,768.757446 202.396545,768.413208 199.633270,770.832642 
	C192.811386,776.805969 186.705032,776.637329 178.531097,771.386841 
	C150.792282,753.568726 122.332756,736.872803 94.159264,719.730530 
	C92.493279,718.716980 90.096359,717.994507 90.223534,715.651184 
	C90.352127,713.281616 92.936218,713.055237 94.609245,712.096558 
	C121.054955,696.943848 147.482193,681.758728 173.954498,666.652588 
	C184.368683,660.709900 194.835190,654.854248 205.379807,649.147339 
	C208.783478,647.305237 210.123016,645.265869 210.160873,641.035889 
	C210.696487,581.213379 210.774323,521.390381 210.638062,461.567078 
	C210.629074,457.620270 212.312714,455.547638 215.482468,453.740967 
	C233.278290,443.597565 250.944244,433.224945 268.796631,423.183258 
	C273.087799,420.769501 274.775635,417.913116 274.762665,412.887238 
	C274.623596,359.057922 274.789642,305.227844 274.665558,251.398453 
	C274.653412,246.134140 276.110535,243.320847 281.009674,240.542023 
	C317.510620,219.838577 353.744263,198.663422 390.043518,177.604858 
	C433.841187,152.196213 477.470795,126.496124 521.719727,101.870399 
	C524.357239,100.402550 526.184082,100.247726 528.836853,101.972054 
	C535.674072,106.416161 542.759644,110.485344 549.821777,114.573288 
	C553.382507,116.634384 556.760437,116.860779 559.654907,113.088226 
	C563.544556,108.018570 563.636536,106.788460 559.748596,102.344025 
	C554.686707,96.557610 554.275269,89.253815 553.965881,82.225327 
	C553.762512,77.605042 559.844849,73.137115 564.863770,73.094543 
	C574.208557,73.015266 582.227661,76.448097 588.555237,83.160881 
	C594.736572,89.718445 600.074585,96.961143 603.589600,105.406601 
	C604.893921,108.540512 604.832642,111.065048 602.072876,113.435471 
	C597.952148,116.974899 594.932373,121.764229 589.527527,123.994972 
	C590.615906,127.072800 595.278564,125.957085 595.438782,129.371353 
	C594.692017,130.721664 593.581970,130.224411 592.652161,130.329956 
	C590.809570,130.539139 589.517700,131.604523 588.881348,133.221176 
	C588.099426,135.207581 589.688049,136.379868 590.976562,137.321136 
	C592.709839,138.587357 594.687561,139.517395 596.552002,140.606216 
	C597.695312,141.273926 599.274719,141.692307 599.887512,142.694092 
	C606.044739,152.760406 616.638977,157.318176 626.011353,163.960571 
M654.652954,723.524292 
	C644.734863,730.953552 633.610352,736.321167 622.551880,741.683655 
	C617.631226,744.069824 616.266113,746.911255 616.545227,752.164612 
	C616.868042,758.239807 618.375366,764.227234 618.046326,770.271179 
	C617.877136,773.379761 617.166565,776.505737 617.110718,779.678406 
	C616.893677,792.004822 616.619690,804.330200 616.414062,816.656799 
	C616.314026,822.648499 616.288330,828.641907 616.286316,834.634583 
	C616.285095,838.283325 617.826904,839.632446 621.311279,837.766296 
	C622.339417,837.215637 623.354675,836.640991 624.378296,836.081848 
	C642.927795,825.948608 661.139282,815.174377 680.366821,806.327026 
	C683.508240,804.881531 684.834045,802.916504 684.816284,799.418945 
	C684.729065,782.254089 684.840515,765.088257 684.865295,747.922729 
	C684.870850,744.090149 684.847595,740.256653 684.765808,736.425110 
	C684.712524,733.927185 683.793457,732.037292 680.848450,732.640869 
	C672.730225,734.304871 663.514771,744.784973 663.080627,753.600098 
	C662.730408,760.710999 659.739319,766.301270 655.350037,771.554993 
	C652.524841,774.936646 650.424805,774.843872 646.581055,772.386719 
	C640.979065,768.805786 637.963989,760.969421 629.647827,762.014160 
	C629.373901,759.362976 631.302917,758.763000 632.698059,757.667419 
	C636.009521,755.067139 639.928589,753.612854 643.674255,751.907227 
	C652.760010,747.770020 658.133545,741.653809 655.917053,731.006348 
	C655.366882,728.363770 657.794128,725.379272 655.409546,722.450867 
	C658.767883,720.682861 662.154968,718.967102 665.480286,717.139038 
	C706.638611,694.511963 747.755249,671.808716 788.982300,649.307800 
	C793.912476,646.616943 795.938049,643.472656 795.925964,637.638489 
	C795.804260,579.148743 796.008728,520.658264 796.058044,462.167999 
	C796.059204,460.821655 796.870178,459.240814 795.425720,457.846436 
	C776.355103,468.115356 757.307861,478.340302 738.299255,488.636719 
	C734.934448,490.459320 731.870117,491.792542 729.978821,486.736847 
	C728.783813,487.267548 727.882874,487.625153 727.019287,488.057526 
	C713.619202,494.766266 700.618958,502.212036 687.470459,509.389008 
	C649.028442,530.372192 610.465515,551.133972 571.929504,571.944519 
	C544.091797,586.977661 516.225830,601.958313 488.357635,616.934814 
	C486.031952,618.184753 484.055206,619.172974 481.135223,617.046997 
	C460.389465,601.942322 438.352020,588.786194 416.701080,575.055664 
	C393.225159,560.167725 369.510284,545.657104 345.936584,530.922791 
	C324.195984,517.334290 302.511963,503.655334 280.775055,490.060883 
	C279.258667,489.112488 277.278412,487.138702 275.923004,488.021088 
	C271.666656,490.791870 269.001129,487.697327 266.042908,485.940094 
	C261.033752,482.964569 256.225922,479.652405 251.261856,476.598083 
	C244.849014,472.652313 238.365814,468.820923 231.147812,464.480133 
	C231.147812,467.240814 231.148468,468.885712 231.147720,470.530609 
	C231.121460,528.853271 231.251038,587.176880 230.896408,645.497559 
	C230.844681,654.003845 232.264923,660.328674 240.832016,663.673096 
	C243.730637,664.804688 246.130310,667.160950 248.971283,668.507629 
	C252.169373,670.023621 253.242249,672.389404 253.221481,675.695862 
	C253.176529,682.860840 253.336716,690.028320 253.212280,697.191223 
	C253.160690,700.161377 254.085114,702.116028 256.720398,703.718323 
	C273.924683,714.178711 290.986145,724.874329 308.201813,735.315613 
	C336.244568,752.323669 364.397461,769.150024 392.452423,786.138000 
	C421.214478,803.554138 449.903259,821.091187 478.668365,838.502197 
	C480.541687,839.636169 482.327850,841.560425 484.890198,840.739563 
	C486.126740,839.397156 485.921448,837.828186 485.923370,836.369019 
	C485.933807,828.537292 485.930573,820.704590 485.812378,812.874084 
	C485.768768,809.981995 485.883362,806.794983 481.112793,808.588806 
	C480.135681,808.956238 478.387787,807.615540 477.130005,806.842712 
	C462.664764,797.953674 448.211060,789.045715 433.782990,780.096497 
	C413.550171,767.546814 393.419769,754.829346 373.072968,742.467712 
	C367.277954,738.947083 361.992645,734.066040 354.405548,733.616882 
	C355.288605,725.908569 352.516754,717.988220 355.612915,709.127502 
	C391.601837,731.280457 426.904419,753.010986 462.207031,774.741516 
	C462.714539,774.435547 463.222015,774.129578 463.729523,773.823608 
	C463.729523,766.569824 463.483429,759.304749 463.815277,752.066162 
	C464.040070,747.162170 462.297058,743.884644 458.185059,741.322632 
	C436.994324,728.119324 415.879456,714.794312 394.729767,701.524963 
	C393.052216,700.472412 390.519531,699.834229 390.360779,697.735413 
	C389.853210,691.023010 389.353790,684.252136 390.797974,677.835022 
	C392.777283,677.054871 393.897430,677.845398 395.030945,678.526672 
	C405.305756,684.701965 415.595947,690.851990 425.844666,697.070251 
	C442.783356,707.347656 459.585236,717.857971 476.701538,727.829346 
	C480.530884,730.060120 482.283539,732.156494 482.235596,736.624451 
	C482.047760,754.119324 482.244781,771.617981 482.175751,789.114746 
	C482.163483,792.224365 482.743774,794.546570 485.891205,795.945190 
	C487.834167,796.808594 489.653839,798.153381 491.224854,799.609985 
	C495.186035,803.282654 498.965820,802.639526 503.419586,800.262146 
	C536.769531,782.460571 570.188416,764.787537 603.658020,747.211792 
	C607.870300,744.999817 610.368530,741.701111 611.481201,737.401855 
	C613.588928,729.257812 618.665222,723.190002 624.818542,717.990112 
	C630.796936,712.938293 635.064270,712.677856 640.994385,717.474976 
	C645.254211,720.920837 649.854492,722.452942 654.652954,723.524292 
M727.762268,301.500000 
	C727.749634,287.000977 727.615906,272.500397 727.805847,258.004028 
	C727.856079,254.173080 726.451965,251.965515 723.299927,249.950470 
	C689.476746,228.327805 655.703491,206.626511 621.981018,184.846985 
	C591.335693,165.054840 560.721802,145.212753 530.232666,125.181686 
	C526.595703,122.792221 523.944824,122.573074 520.416992,124.999611 
	C516.730469,127.535316 512.625610,129.457962 508.732666,131.699127 
	C472.369354,152.633347 436.023682,173.598160 399.650146,194.514572 
	C366.444305,213.609421 333.220947,232.673920 299.965912,251.682877 
	C297.617737,253.025116 296.139984,254.315018 296.151245,257.370941 
	C296.244843,282.702240 296.195587,308.034210 296.112457,333.365723 
	C296.103363,336.138794 296.920349,338.039581 299.432373,339.481171 
	C312.884125,347.201172 325.604370,356.079407 338.373688,364.839264 
	C343.984650,368.688354 350.300842,371.390625 355.499542,375.894501 
	C356.994934,377.190094 359.443970,379.139343 361.275696,377.446686 
	C363.888000,375.032654 365.810577,376.603210 368.046600,377.454041 
	C369.668915,378.071350 371.082275,379.678772 373.094299,378.574738 
	C374.177765,376.688385 373.847473,374.651245 373.846832,372.680725 
	C373.840576,354.015533 373.334198,335.333588 373.996307,316.692871 
	C374.285675,308.545013 371.606598,303.523895 364.710846,299.828217 
	C360.326111,297.478302 355.504364,298.928894 354.194641,303.849213 
	C353.560425,306.231964 353.376495,308.789093 353.352325,311.270844 
	C353.193176,327.601471 353.156433,343.933258 353.012878,360.264069 
	C352.993744,362.441254 353.682648,364.863037 351.718933,366.884979 
	C349.723297,364.751556 349.867401,362.300140 350.113281,360.080841 
	C351.073425,351.415314 349.907196,342.782410 349.961731,334.133911 
	C350.079285,315.477997 349.946594,296.824341 350.477844,278.166870 
	C350.624359,273.021637 352.141235,270.026978 356.587006,267.486511 
	C403.875122,240.464630 451.068634,213.277176 498.274933,186.112198 
	C499.886993,185.184509 501.208130,185.079361 502.857605,186.182556 
	C514.763916,194.145844 526.776001,201.951523 538.654541,209.955551 
	C543.805481,213.426407 543.544434,214.410965 538.028748,217.592010 
	C533.527222,220.188217 528.801331,222.522446 524.546387,226.231003 
	C526.124329,227.461090 527.122742,228.323853 528.202454,229.068756 
	C550.277954,244.298447 573.230164,258.230927 594.876343,274.090607 
	C597.435242,275.965454 599.436584,275.263885 601.716980,273.951172 
	C608.212769,270.211853 614.896118,266.768585 621.191101,262.719788 
	C625.848755,259.724060 629.714844,259.001099 633.756531,263.540955 
	C635.032532,264.974304 637.070984,265.733032 638.770203,266.784851 
	C645.060669,270.678772 645.125549,272.617493 638.643127,276.283020 
	C601.535645,297.265808 564.362793,318.132935 527.281921,339.162567 
	C523.467834,341.325684 518.258606,342.345978 517.808899,348.275085 
	C517.755493,348.979126 516.494812,349.729401 515.653320,350.214722 
	C506.144958,355.698639 496.634796,361.180847 487.059662,366.546661 
	C485.069550,367.661896 483.115082,368.376648 480.625793,366.655151 
	C470.219025,359.458069 459.644897,352.500397 449.053070,345.575867 
	C447.093018,344.294403 445.494202,342.127411 442.832062,342.024170 
	C442.629242,342.652710 442.440125,342.965820 442.439575,343.279266 
	C442.387726,372.275879 442.363831,401.272522 442.285645,430.269073 
	C442.279510,432.545868 443.236877,433.831848 445.143066,435.038574 
	C457.244171,442.699066 469.402222,450.287292 481.208435,458.384949 
	C484.691254,460.773804 487.090851,460.283661 490.183228,458.440125 
	C496.186188,454.861420 502.440094,451.685120 508.308838,447.905548 
	C513.183655,444.766144 516.471680,444.046112 521.282532,449.105774 
	C528.527283,456.725220 528.651917,461.262970 519.290100,466.353668 
	C510.602783,471.077667 501.205078,471.503387 491.588135,471.042297 
	C484.691528,470.711578 484.157745,471.370819 484.115387,478.266022 
	C484.008972,495.597717 484.065582,512.930786 483.876373,530.261414 
	C483.825348,534.936829 483.798462,539.734009 481.593262,544.762512 
	C478.770416,542.281860 475.870728,541.603394 472.971283,540.949280 
	C468.413635,539.921082 466.232178,536.999084 466.016235,532.430481 
	C465.466003,520.789673 463.297791,509.343414 461.930206,497.817963 
	C460.290985,484.003418 451.097626,474.993530 443.159210,465.749359 
	C437.230377,458.845398 434.008728,452.929291 435.537048,444.066620 
	C436.821259,436.619720 435.007874,431.311066 427.981873,426.796570 
	C406.419312,412.941772 384.780487,399.171234 363.955139,384.193176 
	C358.664246,380.387848 354.120209,375.030609 346.537201,375.706360 
	C345.461182,375.802246 344.238495,374.512848 343.118286,373.809479 
	C336.637573,369.740265 330.571625,364.614075 323.569641,361.892822 
	C317.619110,359.580139 312.333008,357.393280 308.534943,352.093018 
	C307.138672,350.144440 305.106567,347.794586 302.315338,348.907623 
	C299.333344,350.096771 297.015656,352.309296 296.897949,356.010406 
	C296.818726,358.502167 296.366364,360.986877 296.360535,363.475433 
	C296.276184,399.473175 296.245819,435.471008 296.179108,471.468811 
	C296.173431,474.527069 296.283691,477.077911 299.535339,479.064301 
	C313.604401,487.658722 327.491669,496.552063 341.405670,505.398590 
	C384.269470,532.651428 427.104370,559.949768 469.974030,587.193298 
	C484.618683,596.499939 485.259979,596.431091 500.565369,588.024719 
	C548.444885,561.727417 596.358032,535.491272 644.223022,509.167603 
	C670.489502,494.722168 696.658325,480.098907 722.943970,465.688629 
	C726.614380,463.676422 727.890930,461.205353 727.878174,456.985199 
	C727.722351,405.490479 727.768677,353.995178 727.762268,301.500000 
M489.223938,287.500214 
	C487.283569,285.115967 484.869965,289.039215 482.793976,286.964020 
	C483.246979,285.800110 484.387177,284.368988 484.059753,283.475830 
	C481.317505,275.994934 483.688477,268.239746 482.614105,260.741302 
	C481.430145,252.477844 484.078827,247.033890 492.185364,244.303894 
	C494.335602,243.579773 496.224213,242.001938 498.138245,240.679047 
	C499.520111,239.723938 500.624390,238.601501 500.258911,236.549805 
	C499.052399,229.776794 500.129883,222.924774 499.704987,216.120148 
	C499.595276,214.363083 500.194458,212.414200 497.654358,210.206924 
	C457.218231,232.915543 416.478149,255.784439 376.584137,279.523499 
	C377.327301,282.196930 378.496002,283.052399 379.686523,283.472443 
	C390.753143,287.377167 394.270782,295.367676 392.354889,306.411194 
	C392.243195,307.055084 392.367554,307.738190 392.364594,308.402954 
	C392.249054,334.387177 392.130737,360.371399 392.015625,386.355621 
	C392.005707,388.593811 392.321472,390.709137 394.426666,392.048096 
	C406.505219,399.730316 418.560608,407.449463 430.687317,415.054871 
	C433.412933,416.764282 435.387115,415.900177 436.297241,412.671844 
	C437.127441,409.727142 437.168915,406.736237 437.028748,403.745453 
	C436.202515,386.119324 434.281555,368.283844 437.404663,350.945892 
	C439.332428,340.243927 435.619720,334.740356 427.597931,329.971039 
	C427.455200,329.886200 427.307465,329.797211 427.192352,329.680359 
	C425.218567,327.676056 421.402557,327.401154 420.729034,324.546143 
	C419.927124,321.146973 424.034363,320.469330 425.702209,318.352478 
	C426.971619,316.741394 427.410431,313.907776 429.992004,313.948303 
	C435.048615,314.027588 439.010437,311.046234 443.168030,309.126465 
	C449.618225,306.148102 455.438629,301.816528 461.568756,298.129730 
	C464.973938,296.081818 468.481628,294.224640 472.672089,294.053925 
	C469.646362,297.212036 468.441956,300.395508 469.709961,304.668854 
	C470.564301,307.547943 468.679871,309.367584 465.707184,309.797729 
	C463.460541,310.122833 461.525543,309.463287 459.574951,308.266357 
	C456.831665,306.583008 449.869659,308.118225 448.945496,310.730408 
	C447.690308,314.278351 449.928192,316.564575 452.596985,318.628265 
	C458.507568,323.198669 464.157654,325.844635 472.024933,321.976227 
	C477.468719,319.299469 483.692017,318.671326 486.022552,311.725586 
	C486.832489,309.311676 488.846283,307.267242 490.449615,305.160126 
	C496.270264,297.510498 496.199921,295.484894 489.223938,287.500214 
M430.558441,864.884094 
	C448.514404,875.855957 466.194000,887.301758 485.838501,897.814087 
	C485.838501,888.427185 485.724731,880.160828 485.895081,871.900208 
	C485.962189,868.647034 484.711792,866.639709 481.973297,865.045898 
	C475.931641,861.529724 469.983246,857.850830 464.036713,854.173828 
	C432.458099,834.646973 400.977081,814.960693 369.298981,795.596802 
	C331.940491,772.760681 294.421967,750.186279 256.956696,727.525024 
	C248.756500,722.565002 240.488480,717.717041 231.165344,712.171265 
	C231.165344,719.827698 231.849167,726.343811 231.002518,732.654541 
	C229.781525,741.755432 234.096497,746.295532 241.418640,750.628479 
	C274.368469,770.126892 307.009857,790.146484 339.765198,809.973633 
	C369.814056,828.162476 399.866425,846.345520 430.558441,864.884094 
M784.442383,677.048950 
	C759.464966,690.651062 734.515869,704.305786 709.475037,717.790161 
	C706.267456,719.517395 704.790833,721.541321 705.009155,725.209595 
	C705.459961,732.784607 705.397949,740.418091 705.404419,747.967285 
	C705.415466,760.766113 705.343994,773.586975 705.290222,786.397644 
	C705.282349,788.274414 704.690125,790.447388 706.622559,791.882019 
	C708.312622,792.016174 709.538757,791.053650 710.835571,790.355347 
	C722.695557,783.969360 734.543640,777.561218 746.392212,771.154053 
	C761.172363,763.161682 775.897400,755.064880 790.763733,747.236206 
	C794.656494,745.186218 796.047180,742.621643 796.025024,738.196350 
	C795.914673,716.061218 796.158142,693.924377 796.239380,671.788025 
	C796.240784,671.408386 795.769409,671.026978 795.384705,670.442993 
	C791.872498,672.568970 788.474976,674.625549 784.442383,677.048950 
M545.045532,870.604248 
	C541.288208,859.293945 548.851318,849.248291 548.432068,838.295715 
	C548.548401,850.200684 551.666504,861.928406 549.140015,874.769043 
	C557.335632,870.386841 564.282227,866.488098 571.406006,862.945618 
	C574.692566,861.311340 575.846802,859.165100 575.825684,855.520691 
	C575.703064,834.377991 575.816040,813.234070 575.809326,792.090515 
	C575.808899,790.833618 576.174500,789.404785 574.546936,788.024841 
	C567.137634,790.370605 560.671814,795.221130 553.423401,798.380371 
	C550.449036,799.676758 549.276794,801.705444 549.136597,804.942566 
	C549.004089,808.003479 549.934326,811.282043 548.386902,814.502258 
	C546.030701,812.396423 548.075073,809.004761 545.102966,807.472473 
	C541.381897,808.800598 541.279480,811.988586 541.273438,815.182129 
	C541.236572,834.660217 541.208252,854.138367 541.226501,873.616455 
	C541.227417,874.623779 540.687378,875.975586 542.271118,876.615723 
	C543.252380,874.870728 544.682800,873.409180 545.045532,870.604248 
M744.924377,440.557739 
	C745.311462,446.177795 744.082642,451.948273 745.922241,458.437622 
	C754.047058,453.967560 761.288696,449.983368 769.257629,445.599060 
	C761.253357,439.581543 753.790100,434.588837 744.925598,429.363281 
	C744.925598,433.451691 744.925598,436.519562 744.924377,440.557739 
z"/>
<path fill="#000000" opacity="1.000000" stroke="none" 
	d="
M304.248779,667.674805 
	C307.797119,669.883301 310.857910,672.271484 314.283630,673.884583 
	C318.934692,676.074646 320.418243,679.535706 319.934326,684.324463 
	C319.478363,688.836304 320.748901,693.518311 318.873413,698.395081 
	C312.099579,696.114014 307.046631,691.674622 301.367950,688.449524 
	C289.619659,681.777405 289.728882,681.555054 289.737549,668.153870 
	C289.739227,665.559631 289.367279,662.897461 290.563690,659.856445 
	C295.824646,661.394470 299.284485,665.559875 304.248779,667.674805 
z"/>
<path fill="#000000" opacity="1.000000" stroke="none" 
	d="
M731.505188,737.351929 
	C729.256775,736.257324 726.899719,736.438477 724.667480,734.410583 
	C729.524231,729.394958 735.596741,726.781555 743.003235,723.348328 
	C743.161133,738.274353 743.137390,752.207153 742.766296,766.890564 
	C738.509644,765.076660 739.177063,762.502991 739.087891,760.335999 
	C738.877014,755.212891 739.718628,750.011292 737.832336,745.023987 
	C736.640625,741.873230 735.373169,738.789917 731.505188,737.351929 
z"/>
</svg>